HIERARCHY
ROOT Hips
{
	OFFSET 0.000000 0.000000 0.000000
	CHANNELS 6 Xposition Yposition Zposition Zrotation Yrotation Xrotation 
	JOINT LeftUpLeg_virtual
	{
		OFFSET 0.000000 0.000000 0.000000
		CHANNELS 3 Zrotation Yrotation Xrotation
		JOINT LeftUpLeg
		{
			OFFSET 10.205400 -3.823500 0.155100
			CHANNELS 3 Zrotation Yrotation Xrotation
			JOINT LeftLeg
			{
				OFFSET 0.708757 -12.982077 0.567790
				CHANNELS 3 Zrotation Yrotation Xrotation
				JOINT LeftFoot
				{
					OFFSET -0.708756 -10.717838 -2.184338
					CHANNELS 3 Zrotation Yrotation Xrotation
					JOINT LeftToeBase
					{
						OFFSET 0.108149 -7.191104 7.560241
						CHANNELS 3 Zrotation Yrotation Xrotation
						End Site
						{
							OFFSET 0.000000 0.000000 0.000000
						}
					}
				}
			}
		}
	}
	JOINT RightUpLeg_virtual
	{
		OFFSET 0.000000 0.000000 0.000000
		CHANNELS 3 Zrotation Yrotation Xrotation
		JOINT RightUpLeg
		{
			OFFSET -10.205400 -3.823500 0.005500
			CHANNELS 3 Zrotation Yrotation Xrotation
			JOINT RightLeg
			{
				OFFSET -0.708756 -12.982134 0.610632
				CHANNELS 3 Zrotation Yrotation Xrotation
				JOINT RightFoot
				{
					OFFSET 0.708754 -10.717769 -1.945823
					CHANNELS 3 Zrotation Yrotation Xrotation
					JOINT RightToeBase
					{
						OFFSET -0.108140 -7.191069 7.372968
						CHANNELS 3 Zrotation Yrotation Xrotation
						End Site
						{
							OFFSET 0.000000 0.000000 0.000000
						}
					}
				}
			}
		}
	}
	JOINT Spine_virtual
	{
		OFFSET 0.000000 0.000000 0.000000
		CHANNELS 3 Zrotation Yrotation Xrotation
		JOINT Spine
		{
			OFFSET 0.000000 6.876099 0.125700
			CHANNELS 3 Zrotation Yrotation Xrotation
			JOINT Spine1
			{
				OFFSET 0.000000 8.022060 0.146608
				CHANNELS 3 Zrotation Yrotation Xrotation
				JOINT Spine2
				{
					OFFSET 0.000000 9.168068 0.167552
					CHANNELS 3 Zrotation Yrotation Xrotation
					JOINT Neck_virtual
					{
						OFFSET 0.000000 0.000000 0.000000
						CHANNELS 3 Zrotation Yrotation Xrotation
						JOINT Neck
						{
							OFFSET 0.000000 10.314075 0.188496
							CHANNELS 3 Zrotation Yrotation Xrotation
							JOINT Head
							{
								OFFSET 0.000000 7.643700 -2.377400
								CHANNELS 3 Zrotation Yrotation Xrotation
								End Site
								{
									OFFSET 0.000000 0.000000 0.000000
								}
							}
						}
					}
					JOINT LeftShoulder_virtual
					{
						OFFSET 0.000000 0.000000 0.000000
						CHANNELS 3 Zrotation Yrotation Xrotation
						JOINT LeftShoulder
						{
							OFFSET 4.392200 8.824978 0.174984
							CHANNELS 3 Zrotation Yrotation Xrotation
							JOINT LeftArm
							{
								OFFSET 8.771219 -2.981674 -0.026999
								CHANNELS 3 Zrotation Yrotation Xrotation
								JOINT LeftForeArm
								{
									OFFSET 8.512804 0.000000 -0.000000
									CHANNELS 3 Zrotation Yrotation Xrotation
									JOINT LeftHand
									{
										OFFSET 18.484802 0.000000 -0.000000
										CHANNELS 3 Zrotation Yrotation Xrotation
										End Site
										{
											OFFSET 0.000000 0.000000 0.000000
										}
									}
								}
							}
						}
					}
					JOINT RightShoulder_virtual
					{
						OFFSET 0.000000 0.000000 0.000000
						CHANNELS 3 Zrotation Yrotation Xrotation
						JOINT RightShoulder
						{
							OFFSET -4.392200 8.824993 0.141379
							CHANNELS 3 Zrotation Yrotation Xrotation
							JOINT RightArm
							{
								OFFSET -8.771282 -2.981682 -0.094208
								CHANNELS 3 Zrotation Yrotation Xrotation
								JOINT RightForeArm
								{
									OFFSET -8.494598 0.000000 0.000000
									CHANNELS 3 Zrotation Yrotation Xrotation
									JOINT RightHand
									{
										OFFSET -18.483803 0.000000 0.000001
										CHANNELS 3 Zrotation Yrotation Xrotation
										End Site
										{
											OFFSET 0.000000 0.000000 0.000000
										}
									}
								}
							}
						}
					}
				}
			}
		}
	}
}
MOTION
Frames: 4
Frame Time: 0.033333
4.120056 36.509392 8.340243 -179.980252 4.988818 -179.964570 -2.446205 -2.680248 9.902618 -4.870822 -1.990170 -17.641661 6.624749 7.305548 13.998119 -5.969841 0.411360 11.196286 0.000000 0.000000 0.000000 2.766902 -1.036983 8.307555 1.159078 -0.115078 -7.801226 -7.263044 0.987793 11.379948 7.060303 7.070219 8.269905 0.000000 0.000000 0.000000 1.998759 0.631187 -1.087623 -4.751362 0.487804 -4.789171 1.531154 -3.465715 4.030327 -0.002029 0.020501 0.000466 1.175708 -1.943190 5.565956 2.295776 1.824322 2.490421 0.000000 0.000000 0.000000 2.446120 -0.929806 2.930414 -2.537396 -4.795342 -4.280562 -18.941038 30.504649 -29.816532 -5.161729 -32.540459 -3.543906 0.000000 0.000000 0.000000 -0.775252 -0.274469 2.465680 11.562452 -1.604176 -5.513306 20.372909 -30.337354 -34.826206 -1.776228 33.882205 -3.306276 0.000000 0.000000 0.000000 
4.112052 36.504955 8.358817 -179.968368 5.036580 -179.953833 -2.544418 -2.654548 9.919192 -4.929412 -1.648381 -17.703230 6.535251 7.453493 14.019602 -5.834498 0.483487 10.978666 0.000000 0.000000 0.000000 2.810550 -0.969294 8.357145 0.993118 0.239103 -7.781445 -7.491782 1.264077 11.327567 7.401611 7.324899 8.238911 0.000000 0.000000 0.000000 1.963090 0.597665 -1.065858 -4.720177 0.456690 -4.779546 1.532612 -3.509522 4.012307 -0.020325 -0.022342 0.008102 1.169722 -1.836341 5.542986 2.309782 1.754729 2.512144 0.000000 0.000000 0.000000 2.449076 -0.845872 2.893724 -2.540442 -4.742364 -4.234199 -19.007629 30.526714 -29.788060 -5.125984 -32.472020 -3.552439 0.000000 0.000000 0.000000 -0.769037 -0.158641 2.466967 11.595785 -1.500212 -5.412046 20.360493 -30.379281 -34.905719 -1.788950 33.824125 -3.286398 0.000000 0.000000 0.000000 
4.112989 36.499516 8.381090 -179.928725 5.136418 -179.862008 -2.460262 -2.581772 9.872438 -4.923499 -1.803236 -17.754049 6.602544 7.564895 13.990698 -5.818081 0.494043 11.051238 0.000000 0.000000 0.000000 2.817671 -0.890838 8.324930 1.019794 0.239065 -7.858223 -7.417471 1.419835 11.271078 7.353576 7.264986 8.258941 0.000000 0.000000 0.000000 1.954946 0.671638 -1.093893 -4.660545 0.514839 -4.810155 1.576167 -3.469536 3.971219 0.020321 0.019072 0.001519 1.146967 -1.792770 5.519045 2.303000 1.650347 2.528325 0.000000 0.000000 0.000000 2.401754 -0.881382 2.914130 -2.564262 -4.881773 -4.236472 -19.152074 30.605641 -29.642744 -5.162540 -32.405245 -3.474589 0.000000 0.000000 0.000000 -0.793235 -0.217505 2.426788 11.612396 -1.550308 -5.300997 20.454405 -30.419682 -35.100178 -1.775634 33.760887 -3.196179 0.000000 0.000000 0.000000 
4.125666 36.496010 8.412974 -179.896364 5.066908 -179.867212 -2.411552 -2.602861 9.837825 -4.923223 -1.907377 -17.802529 6.693272 7.560507 14.048952 -5.856671 0.467728 11.058778 0.000000 0.000000 0.000000 2.859855 -0.920952 8.329158 1.084944 0.276260 -7.921648 -7.345890 1.558257 11.278644 7.177989 7.261014 8.289439 0.000000 0.000000 0.000000 1.917981 0.678808 -1.052576 -4.591124 0.500556 -4.760528 1.593421 -3.490993 3.950469 -0.004436 -0.003485 0.024831 1.182251 -1.763195 5.445865 2.298023 1.536722 2.591978 0.000000 0.000000 0.000000 2.428261 -0.854217 2.862434 -2.636172 -4.973221 -4.145021 -19.358747 30.638712 -29.325124 -5.091431 -32.384481 -3.355793 0.000000 0.000000 0.000000 -0.789527 -0.197636 2.385465 11.596650 -1.496087 -5.261874 20.578773 -30.455165 -35.066478 -1.926636 33.733693 -3.236720 0.000000 0.000000 0.000000 
